mtllib arr2.mtl
o Plane_Material_0
usemtl Material.003
v 1.0000022243486246 -1.5195047076217318e-7 4.874134994873533
v 0.9999976277102482 -1.5195047076217318e-7 -4.874135937940887
v -1.0000022243486246 1.5195047076217318e-7 -4.874134994873533
v -0.9999976277102482 1.5195047076217318e-7 4.874135937940887
v 1.000002221118134 -0.021260305989173223 4.874134994873534
v -0.9999976309407387 -0.0212600020882317 4.874135937940888
v -1.0000022275791152 -0.0212600020882317 -4.874134994873531
v 0.9999976244797578 -0.021260305989173223 -4.874135937940885
vt 0 1
vt 1 1
vt 1 0
vt 0 0
vt 0 1
vt 0 0
vt 1 0
vt 1 1
vn 1.5195048200200044e-7 0.9999999999999883 -7.16497747859326e-14
vn 1.5195048200200044e-7 0.9999999999999883 -7.16497747859326e-14
vn 1.5195048200200044e-7 0.9999999999999883 -7.16497747859326e-14
vn 1.5195048200200044e-7 0.9999999999999883 -7.16497747859326e-14
vn -1.5195048200200044e-7 -0.9999999999999883 7.16497747859326e-14
vn -1.5195048200200044e-7 -0.9999999999999883 7.16497747859326e-14
vn -1.5195048200200044e-7 -0.9999999999999883 7.16497747859326e-14
vn -1.5195048200200044e-7 -0.9999999999999883 7.16497747859326e-14
f 1/1/1 2/2/2 3/3/3
f 1/1/1 3/3/3 4/4/4
f 5/5/5 6/6/6 7/7/7
f 5/5/5 7/7/7 8/8/8
