mtllib carArrow.mtl
o Cube
usemtl Material
v 2.2599689960479736 0 1.316776990890503
v 2.2599689960479736 0 1.316776990890503
v 2.2599689960479736 0 1.316776990890503
v -0.0038397610187530518 0.3446947932243347 0.04968646168708801
v -0.0038397610187530518 0.3446947932243347 0.04968646168708801
v -0.0038397610187530518 0.3446947932243347 0.04968646168708801
v -0.0038397610187530518 -0.3446947932243347 0.04968646168708801
v -0.0038397610187530518 -0.3446947932243347 0.04968646168708801
v -0.0038397610187530518 -0.3446947932243347 0.04968646168708801
v 0.003914564847946167 0 -3.2550296783447266
v 0.003914564847946167 0 -3.2550296783447266
v -2.2507147789001465 0 1.4586282968521118
v -2.2507147789001465 0 1.4586282968521118
v -2.2507147789001465 0 1.4586282968521118
vt 0.375 0.5
vt 0.625 0.5
vt 0.625 0.5
vt 0.625 0.75
vt 0.625 0.75
vt 0.625 0.75
vt 0.375 0.75
vt 0.375 0.75
vt 0.375 0.75
vt 0.125 0.5
vt 0.875 0.5
vt 0.125 0.75
vt 0.375 1
vt 0.875 0.75
vn -0.0033000103187441334 -0.9946031133935822 -0.10370032188807046
vn -0.4884084703194092 0 0.8726151305817789
vn -0.0033000103187441334 0.9946031133935822 -0.10370032188807046
vn -0.4884084703194092 0 0.8726151305817789
vn -0.0033000103187441334 0.9946031133935822 -0.10370032188807046
vn 0.5312927033637995 0 0.847188328149288
vn -0.4884084703194092 0 0.8726151305817789
vn -0.0033000103187441334 -0.9946031133935822 -0.10370032188807046
vn 0.5312927033637995 0 0.847188328149288
vn -0.0033000103187441334 -0.9946031133935822 -0.10370032188807046
vn -0.0033000103187441334 0.9946031133935822 -0.10370032188807046
vn -0.0033000103187441334 -0.9946031133935822 -0.10370032188807046
vn 0.5312927033637995 0 0.847188328149288
vn -0.0033000103187441334 0.9946031133935822 -0.10370032188807046
f 3/3/3 11/11/11 5/5/5
f 11/11/11 14/14/14 5/5/5
f 9/9/9 6/6/6 13/13/13
f 10/10/10 1/1/1 8/8/8
f 10/10/10 8/8/8 12/12/12
f 2/2/2 4/4/4 7/7/7
